<?xml version="1.0" standalone="no"?>
<!DOCTYPE svg PUBLIC "-//W3C//DTD SVG 20010904//EN"
 "http://www.w3.org/TR/2001/REC-SVG-20010904/DTD/svg10.dtd">
<svg version="1.0" xmlns="http://www.w3.org/2000/svg"
 width="2501.000000pt" height="1251.000000pt" viewBox="0 0 2501.000000 1251.000000"
 preserveAspectRatio="xMidYMid meet">
 
    <style type="text/css"><![CDATA[
      path {
        fill: #000;
      }
	  @media (prefers-color-scheme: dark) {
		path {
			fill: #fff;
		}
      }
    ]]></style>

<g transform="translate(0.000000,1251.000000) scale(0.100000,-0.100000)"
fill="#000000" stroke="none">
<path d="M3460 9650 l0 -1371 588 3 c562 4 592 5 695 26 408 85 709 306 886
652 218 424 225 956 17 1367 -178 352 -478 574 -902 665 -93 20 -133 21 -691
25 l-593 4 0 -1371z m1108 1099 c383 -42 665 -233 830 -564 92 -185 136 -441
112 -654 -31 -282 -138 -521 -313 -695 -128 -128 -276 -210 -476 -264 -95 -26
-100 -26 -538 -30 l-443 -3 0 1110 0 1111 365 0 c201 0 409 -5 463 -11z"/>
<path d="M6374 11001 c-114 -28 -172 -144 -129 -256 50 -132 241 -151 328 -34
43 59 37 181 -13 234 -42 45 -125 70 -186 56z"/>
<path d="M10781 10995 c-88 -28 -142 -115 -127 -207 24 -150 200 -206 316
-102 72 65 76 182 9 259 -45 51 -127 72 -198 50z"/>
<path d="M9595 10779 c-33 -4 -90 -10 -127 -14 l-68 -7 0 -274 0 -274 -200 0
-201 0 3 -112 3 -113 197 -3 197 -2 3 -643 c3 -641 3 -642 27 -712 35 -106 78
-179 137 -235 112 -106 307 -157 497 -131 72 10 243 60 277 81 11 7 7 27 -27
117 -22 59 -45 107 -49 106 -5 -1 -43 -15 -84 -30 -67 -25 -88 -28 -195 -28
-114 0 -123 1 -173 30 -62 34 -101 85 -128 165 -17 50 -18 108 -22 667 l-3
613 313 2 313 3 3 113 3 112 -316 0 -315 0 -2 288 -3 287 -60 -6z"/>
<path d="M7945 10244 c-195 -26 -294 -53 -410 -111 -241 -121 -401 -325 -477
-611 -29 -111 -36 -344 -14 -472 35 -201 111 -360 235 -492 194 -207 442 -309
751 -309 250 0 454 70 645 222 41 32 75 62 75 66 0 4 -39 47 -86 94 l-86 87
-70 -54 c-80 -62 -184 -114 -279 -140 -88 -25 -308 -25 -399 -1 -204 54 -370
185 -453 358 -62 128 -82 222 -80 379 2 225 64 382 208 526 68 68 97 89 176
127 52 25 128 53 169 62 99 23 274 23 360 1 91 -23 215 -84 284 -141 l59 -47
86 86 86 87 -40 34 c-183 158 -378 238 -606 248 -57 3 -117 3 -134 1z"/>
<path d="M12310 10244 c-120 -21 -154 -29 -227 -54 -406 -138 -648 -519 -630
-990 18 -469 283 -803 733 -921 78 -21 110 -24 264 -23 157 1 185 4 274 28
183 50 319 127 441 250 379 382 359 1104 -39 1462 -180 163 -388 242 -651 249
-77 2 -151 2 -165 -1z m325 -259 c129 -33 284 -127 357 -217 129 -158 187
-347 175 -576 -7 -140 -24 -209 -80 -322 -53 -109 -167 -227 -272 -282 -123
-64 -208 -83 -375 -82 -124 1 -157 4 -225 25 -224 69 -387 229 -463 457 -24
71 -26 91 -27 252 0 156 3 183 23 250 91 290 306 474 602 513 60 9 222 -2 285
-18z"/>
<path d="M14741 10240 c-173 -24 -328 -98 -442 -210 -42 -41 -85 -88 -97 -105
l-21 -30 -1 140 c0 202 12 185 -136 185 l-124 0 0 -970 0 -971 133 3 132 3 5
600 5 600 28 80 c106 298 363 458 683 425 272 -29 435 -157 512 -405 14 -42
17 -146 22 -675 l5 -625 133 -3 132 -3 0 610 c0 664 -2 690 -59 851 -40 113
-85 184 -176 275 -108 109 -233 173 -405 210 -88 18 -251 26 -329 15z"/>
<path d="M19541 10240 c-197 -28 -369 -129 -463 -274 l-38 -59 -1 54 c-1 30
-4 99 -8 154 l-6 100 -122 3 -123 3 0 -971 0 -970 130 0 130 0 0 573 c1 643 4
680 65 805 143 288 494 410 784 272 46 -22 85 -39 86 -38 1 2 28 50 59 108
l58 104 -23 19 c-36 29 -156 84 -221 101 -75 19 -226 27 -307 16z"/>
<path d="M16989 10230 c-302 -51 -554 -223 -694 -474 -18 -34 -48 -102 -65
-153 -123 -370 -44 -793 198 -1055 298 -322 822 -401 1197 -181 87 50 212 164
261 238 l34 50 0 -188 0 -187 125 0 125 0 -2 968 -3 967 -122 3 -123 3 0 -192
0 -191 -40 60 c-111 165 -328 294 -561 332 -73 11 -261 11 -330 0z m335 -245
c224 -39 397 -166 500 -365 112 -215 119 -492 20 -708 -70 -154 -169 -261
-305 -332 -120 -62 -212 -84 -359 -84 -151 0 -230 17 -350 76 -69 34 -102 59
-175 133 -74 73 -99 106 -132 175 -56 115 -73 183 -80 325 -11 243 55 430 208
584 171 172 410 242 673 196z"/>
<path d="M6280 9250 l0 -971 133 3 132 3 3 968 2 967 -135 0 -135 0 0 -970z"/>
<path d="M10700 9250 l0 -970 135 0 135 0 0 970 0 970 -135 0 -135 0 0 -970z"/>
<path d="M9802 7959 c-92 -17 -137 -76 -130 -172 4 -53 8 -64 40 -92 19 -18
41 -34 49 -37 11 -4 4 -34 -33 -149 -27 -80 -48 -148 -48 -152 0 -4 40 -7 88
-7 l88 0 52 134 c107 274 116 311 86 386 -28 69 -104 104 -192 89z"/>
<path d="M10453 6033 c13 -2259 20 -3303 23 -3301 5 5 33 418 44 638 6 118 49
978 95 1910 46 932 87 1736 90 1786 l7 91 -124 26 c-68 15 -127 27 -132 27 -5
0 -6 -474 -3 -1177z"/>
<path d="M6100 6948 c1 -20 540 -4121 542 -4123 6 -6 399 -28 404 -23 2 3 36
637 74 1409 38 772 75 1478 80 1569 11 160 27 1120 19 1120 -2 0 -249 11 -549
25 -594 27 -570 26 -570 23z"/>
<path d="M17965 6885 c-253 -13 -473 -25 -490 -27 -28 -3 -24 -6 50 -46 363
-198 588 -505 730 -997 53 -183 74 -349 159 -1236 46 -486 87 -927 91 -979 8
-132 43 -437 61 -545 19 -116 66 -313 71 -299 3 10 -119 3706 -133 4012 l-6
142 -37 -1 c-20 -1 -243 -12 -496 -24z"/>
<path d="M11896 6807 c-14 -195 -46 -910 -42 -914 2 -2 48 40 103 94 197 198
444 328 723 380 148 28 480 25 620 -6 305 -65 527 -186 745 -405 128 -128 213
-243 296 -399 l49 -92 0 51 c0 88 -31 838 -35 842 -2 2 -545 123 -1207 268
-662 145 -1213 266 -1225 269 -20 5 -21 1 -27 -88z"/>
<path d="M8430 6541 l0 -301 25 0 c14 0 25 6 25 13 0 28 122 256 172 322 29
39 91 109 137 158 46 48 82 89 80 91 -2 2 -102 7 -221 11 l-218 7 0 -301z"/>
<path d="M18590 6794 c0 -14 45 -627 100 -1363 55 -736 100 -1348 100 -1361 0
-76 21 56 100 637 49 356 98 707 109 778 27 175 55 422 87 770 14 160 28 292
31 295 2 2 238 -29 525 -70 l520 -74 -7 -273 c-4 -150 -4 -273 -1 -273 4 0 42
32 84 70 206 188 441 313 692 367 120 25 475 26 605 0 517 -102 868 -395 1020
-850 76 -227 106 -492 87 -763 -6 -89 -65 -558 -132 -1043 -67 -485 -119 -885
-116 -888 9 -9 310 -24 317 -15 8 10 212 3942 205 3949 -3 4 -909 32 -2013 64
-1105 31 -2077 59 -2160 62 l-153 6 0 -25z"/>
<path d="M10006 6728 c-5 -48 -47 -897 -46 -942 0 -13 -5 -16 -17 -11 -10 3
-90 18 -178 32 -135 21 -181 24 -295 20 -433 -17 -732 -236 -860 -628 -50
-153 -64 -345 -111 -1456 -23 -552 -40 -1005 -38 -1008 7 -6 1907 -80 1913
-74 2 2 -41 915 -95 2029 -54 1114 -98 2040 -99 2058 l0 32 -84 0 -85 0 -5
-52z"/>
<path d="M14875 6764 c-126 -7 -239 -13 -251 -13 -20 -1 -20 -3 -8 -108 7 -60
13 -111 14 -115 0 -4 24 6 53 24 28 17 137 73 242 125 185 92 208 105 189 102
-5 -1 -112 -8 -239 -15z"/>
<path d="M4561 6734 c-322 -14 -587 -26 -589 -29 -4 -4 -33 -556 -86 -1635
-10 -219 -12 -340 -5 -429 38 -497 236 -731 620 -731 54 0 122 5 151 11 227
47 448 286 492 531 10 55 31 427 61 1118 25 569 48 1070 51 1113 l6 77 -58 -1
c-33 -1 -322 -12 -643 -25z"/>
<path d="M2310 6668 c-6 -31 -224 -4031 -220 -4033 5 -3 3774 116 4020 127
l65 3 3 78 3 77 -38 0 c-21 0 -222 9 -448 20 -225 11 -413 20 -416 20 -3 0 -9
84 -13 188 -12 364 -19 407 -53 353 -31 -50 -163 -188 -236 -247 -284 -228
-619 -337 -987 -321 -392 18 -698 131 -914 336 -217 207 -365 525 -420 901
-32 217 -30 348 18 1370 25 536 48 1010 51 1053 l5 77 -210 0 c-115 0 -210 -1
-210 -2z"/>
<path d="M14692 6115 c3 -16 50 -332 104 -701 l99 -672 40 35 c165 142 280
222 445 311 355 189 864 332 1425 398 77 9 141 17 143 18 6 6 -31 174 -50 225
-30 79 -57 119 -123 179 -66 60 -169 113 -281 144 -114 31 -367 31 -547 -1
-327 -57 -670 -189 -959 -368 -49 -30 -91 -53 -92 -52 -2 2 -47 117 -101 254
-53 138 -99 252 -102 255 -3 3 -3 -8 -1 -25z"/>
<path d="M12415 5470 c-141 -30 -269 -102 -380 -214 -92 -93 -133 -163 -195
-336 l-42 -115 -13 -275 c-8 -151 -14 -343 -15 -426 0 -134 3 -162 26 -240 41
-145 95 -235 204 -345 79 -80 109 -103 180 -138 126 -61 192 -75 345 -75 153
0 219 14 345 76 69 33 102 58 176 132 129 129 194 249 248 458 41 156 50 240
50 473 0 190 -3 234 -22 322 -100 459 -351 696 -752 709 -63 1 -133 -1 -155
-6z"/>
<path d="M20654 5396 c-117 -27 -235 -105 -354 -234 -84 -90 -119 -160 -150
-292 -12 -52 -79 -504 -149 -1005 -114 -808 -126 -911 -112 -917 17 -7 1261
-112 1265 -106 1 2 56 374 122 828 l119 825 0 190 c0 162 -4 203 -22 277 -61
238 -177 364 -390 419 -103 26 -250 33 -329 15z"/>
<path d="M16890 4624 c-364 -50 -630 -139 -807 -273 -166 -125 -243 -270 -243
-456 1 -171 51 -304 149 -399 66 -62 130 -96 231 -122 79 -20 261 -15 355 10
205 56 404 223 494 416 58 124 63 207 32 550 -12 135 -24 255 -27 268 -5 26
-26 27 -184 6z"/>
<path d="M14422 3558 c-109 -282 -204 -440 -424 -702 l-32 -39 44 6 c25 3 144
11 265 18 121 6 223 15 227 18 6 5 -10 521 -24 786 l-3 50 -53 -137z"/>
<path d="M11550 3023 c0 -5 -7 -62 -15 -128 -8 -65 -15 -125 -15 -132 0 -10
28 -13 115 -13 l115 0 -60 81 c-34 45 -75 108 -93 140 -29 53 -47 72 -47 52z"/>
<path d="M17248 2973 c-18 -21 -66 -72 -106 -114 l-73 -77 108 -6 c59 -4 125
-8 146 -10 20 -2 37 -1 37 2 0 4 -12 60 -27 125 -17 76 -31 117 -39 117 -8 0
-28 -17 -46 -37z"/>
</g>
</svg>
